Coordinates
version=1
nRows=36
nColumns=34
inDegrees=no

Units are S.I. units (second, meters, Newtons, ...)
If the header above contains a line with 'inDegrees', this indicates whether rotational values are in degrees (yes) or radians (no).

endheader
time	pelvis_tilt	pelvis_list	pelvis_rotation	pelvis_tx	pelvis_ty	pelvis_tz	hip_flexion_r	hip_adduction_r	hip_rotation_r	knee_angle_r	ankle_angle_r	subtalar_angle_r	mtp_angle_r	hip_flexion_l	hip_adduction_l	hip_rotation_l	knee_angle_l	ankle_angle_l	subtalar_angle_l	mtp_angle_l	lumbar_extension	lumbar_bending	lumbar_rotation	arm_flex_r	arm_add_r	arm_rot_r	elbow_flex_r	pro_sup_r	arm_flex_l	arm_add_l	arm_rot_l	elbow_flex_l	pro_sup_l
0.92	0.134253	0.0130918	-0.0174769	0.72328	1.14905	-0.209969	-0.328857	-0.0172222	-0.156262	0.482905	-0.113704	0.00203167	-0.019347	0.0939063	0.0122067	-0.285295	0.0388804	-0.0809188	0.299322	-0.097998	-0.480501	-0.253955	-0.219115	-0.318379	-0.161961	-0.0886749	0.734214	2.11198	-0.113369	-0.280899	-0.277281	0.767985	2.06966
0.93	0.133707	0.0134368	-0.0232345	0.733488	1.15094	-0.209045	-0.307745	-0.022051	-0.137673	0.526104	-0.143289	-0.0272111	-0.0194335	0.0871404	0.0106365	-0.291679	0.0437572	-0.0738689	0.303089	-0.0978669	-0.482301	-0.266098	-0.219458	-0.325407	-0.158947	-0.0883711	0.734697	2.10669	-0.107877	-0.288474	-0.277634	0.766507	2.06986
0.94	0.133421	0.0126552	-0.0296689	0.743491	1.15286	-0.208114	-0.285541	-0.0252929	-0.118342	0.570149	-0.16986	-0.0557789	-0.01952	0.07906	0.00839327	-0.297327	0.0463807	-0.0676396	0.305431	-0.0977359	-0.48417	-0.276844	-0.218609	-0.332072	-0.156835	-0.087259	0.735977	2.10188	-0.102132	-0.295814	-0.27758	0.765901	2.06983
0.95	0.133461	0.0108439	-0.0364752	0.753312	1.15478	-0.207196	-0.262852	-0.026894	-0.0989088	0.614129	-0.192603	-0.0830901	-0.0196064	0.0695849	0.00564837	-0.301876	0.0466578	-0.0626108	0.306094	-0.097605	-0.486129	-0.286183	-0.217002	-0.33838	-0.155656	-0.0852804	0.738017	2.09779	-0.0964176	-0.302893	-0.277291	0.766259	2.06959
0.96	0.133825	0.00813033	-0.0433331	0.762984	1.15671	-0.206314	-0.240204	-0.0268858	-0.0799857	0.657201	-0.210846	-0.108762	-0.0196928	0.05878	0.00255238	-0.305093	0.0447467	-0.0588925	0.305048	-0.0974742	-0.488183	-0.294148	-0.215082	-0.344349	-0.155387	-0.0824885	0.740765	2.09457	-0.0909939	-0.309706	-0.276918	0.767629	2.06917
0.97	0.134491	0.00470978	-0.04995	0.77253	1.15858	-0.205489	-0.217994	-0.0253838	-0.0621156	0.698647	-0.224167	-0.132658	-0.0197791	0.0468387	-0.000778125	-0.306892	0.0409951	-0.0563712	0.302445	-0.0973436	-0.490304	-0.300796	-0.213252	-0.350004	-0.155956	-0.0790389	0.744136	2.09221	-0.0860653	-0.316263	-0.276564	0.770006	2.06862
0.98	0.135392	0.000753108	-0.0560877	0.781968	1.16039	-0.20473	-0.196487	-0.0226034	-0.0457422	0.737904	-0.23248	-0.154898	-0.0198654	0.0340356	-0.00422915	-0.307312	0.0358738	-0.0547801	0.298564	-0.097213	-0.492455	-0.306248	-0.211834	-0.355377	-0.157247	-0.0751702	0.748013	2.09064	-0.0817554	-0.32259	-0.276272	0.77333	2.06792
0.99	0.136465	-0.00354672	-0.0615784	0.791317	1.16214	-0.204044	-0.175809	-0.0188383	-0.0311981	0.774576	-0.236093	-0.175846	-0.0199517	0.0206912	-0.00769859	-0.30649	0.0298964	-0.0537751	0.293733	-0.0970826	-0.49458	-0.310664	-0.21104	-0.360496	-0.159107	-0.071176	0.752245	2.08966	-0.0780974	-0.328719	-0.276023	0.77749	2.06705
1	0.137635	-0.0079903	-0.0663347	0.800589	1.1638	-0.203434	-0.155977	-0.0144383	-0.0187036	0.808416	-0.235692	-0.196053	-0.0200378	0.00712566	-0.0110838	-0.304617	0.0235573	-0.0530051	0.288257	-0.0969523	-0.496624	-0.31424	-0.210966	-0.365391	-0.16136	-0.0673722	0.756657	2.08905	-0.0750372	-0.334688	-0.275746	0.782338	2.06594
1.01	0.138828	-0.0123821	-0.0703418	0.809792	1.16537	-0.2029	-0.136934	-0.00977951	-0.00837431	0.839301	-0.232259	-0.216176	-0.020124	-0.00637331	-0.0142753	-0.301896	0.0172841	-0.0521659	0.282368	-0.0968221	-0.498545	-0.317191	-0.211603	-0.370089	-0.163817	-0.0640625	0.761062	2.08859	-0.0724487	-0.340535	-0.275333	0.787704	2.06451
1.02	0.139985	-0.0165417	-0.0736418	0.81893	1.16685	-0.202443	-0.118583	-0.00523124	-0.000232847	0.867197	-0.226937	-0.236869	-0.02021	-0.0195736	-0.0171578	-0.2985	0.0114109	-0.0510329	0.276185	-0.096692	-0.500313	-0.319735	-0.212861	-0.374615	-0.166298	-0.0615082	0.765281	2.08807	-0.0701558	-0.346287	-0.274664	0.79341	2.0627
1.03	0.141068	-0.0203162	-0.076314	0.828003	1.16821	-0.202057	-0.100823	-0.00112277	0.0057782	0.892121	-0.220853	-0.258678	-0.0202961	-0.0323102	-0.0196174	-0.294553	0.00617053	-0.0494735	0.269702	-0.096562	-0.501925	-0.322075	-0.214597	-0.378993	-0.168636	-0.0599047	0.769153	2.08734	-0.0679569	-0.351961	-0.273633	0.799291	2.06047
1.04	0.142066	-0.0235915	-0.0784554	0.837011	1.16945	-0.201739	-0.0835711	0.00228545	0.00978451	0.914117	-0.214957	-0.28193	-0.020382	-0.0444877	-0.021554	-0.290115	0.00170213	-0.0474413	0.262805	-0.0964321	-0.503398	-0.324375	-0.216636	-0.383239	-0.170696	-0.0593677	0.772547	2.08634	-0.065648	-0.357555	-0.27216	0.805197	2.05784
1.05	0.143	-0.0263005	-0.0801658	0.845953	1.17058	-0.201485	-0.0667789	0.00482326	0.0119693	0.933229	-0.209904	-0.306672	-0.020468	-0.0560749	-0.0228959	-0.28519	-0.00193336	-0.0449593	0.255298	-0.0963023	-0.504774	-0.326749	-0.218798	-0.387361	-0.172378	-0.059929	0.775372	2.08511	-0.0630424	-0.363051	-0.270207	0.811003	2.05491
1.06	0.143912	-0.0284264	-0.0815375	0.854829	1.17159	-0.201295	-0.0504349	0.00642091	0.0125629	0.949485	-0.205996	-0.332624	-0.0205538	-0.0670972	-0.0236096	-0.279734	-0.0047372	-0.0421	0.246932	-0.0961727	-0.506107	-0.329254	-0.220913	-0.391356	-0.173621	-0.0615395	0.777574	2.08375	-0.0599852	-0.368408	-0.267779	0.816612	2.05181
1.07	0.144856	-0.0300012	-0.08265	0.863641	1.17249	-0.201165	-0.0345615	0.00710712	0.0118319	0.962895	-0.203191	-0.359197	-0.0206397	-0.0776273	-0.0237025	-0.273647	-0.00676388	-0.0389704	0.237407	-0.0960432	-0.507462	-0.331892	-0.22283	-0.395204	-0.174407	-0.0640762	0.779137	2.08239	-0.0563633	-0.373572	-0.264918	0.821955	2.04868
1.08	0.14589	-0.0311004	-0.0835705	0.872388	1.17328	-0.201091	-0.019206	0.00699961	0.0100685	0.973443	-0.201169	-0.385542	-0.0207254	-0.0877641	-0.0232281	-0.26685	-0.00809161	-0.0356705	0.226486	-0.0959137	-0.508901	-0.33461	-0.224426	-0.398872	-0.174757	-0.0673555	0.780075	2.08117	-0.0521114	-0.378474	-0.261697	0.826987	2.04566
1.09	0.147058	-0.0318325	-0.0843566	0.881069	1.17396	-0.201068	-0.00442787	0.00628703	0.00757926	0.981096	-0.199431	-0.410632	-0.0208111	-0.0976096	-0.0222846	-0.259357	-0.00879551	-0.0322554	0.214108	-0.0957844	-0.510474	-0.337322	-0.225606	-0.402309	-0.174725	-0.071148	0.780423	2.08019	-0.0472141	-0.383038	-0.258218	0.831685	2.04291
1.1	0.14839	-0.0323255	-0.0850592	0.889686	1.17456	-0.201088	0.00971592	0.00520383	0.0046721	0.985809	-0.197404	-0.433371	-0.0208968	-0.107249	-0.0210052	-0.251315	-0.00893202	-0.0287135	0.200441	-0.0956552	-0.512206	-0.339921	-0.226303	-0.405453	-0.174392	-0.0751953	0.780234	2.07946	-0.0417046	-0.387185	-0.254606	0.836039	2.04062
1.11	0.14989	-0.0327093	-0.0857246	0.898235	1.17509	-0.201143	0.0231822	0.00400152	0.0016414	0.987535	-0.194539	-0.452704	-0.0209824	-0.116738	-0.0195414	-0.243009	-0.00853527	-0.024967	0.185889	-0.0955262	-0.514093	-0.342294	-0.226483	-0.408235	-0.173855	-0.0792277	0.779571	2.07895	-0.0356602	-0.390846	-0.250996	0.840048	2.03901
1.12	0.151535	-0.0331005	-0.0863948	0.906719	1.17554	-0.201222	0.0359498	0.00292004	-0.00124631	0.986236	-0.190375	-0.467721	-0.021068	-0.126099	-0.0180432	-0.234821	-0.00762362	-0.0208902	0.171031	-0.0953972	-0.516096	-0.344343	-0.226142	-0.410587	-0.17322	-0.0829841	0.778507	2.07855	-0.0291938	-0.393962	-0.24753	0.843718	2.03828
1.13	0.153279	-0.0335883	-0.0871063	0.915138	1.17593	-0.201317	0.0480211	0.00216283	-0.0037652	0.981891	-0.184594	-0.477742	-0.0211535	-0.135322	-0.0166392	-0.227167	-0.00621193	-0.0163418	0.156532	-0.0952684	-0.518148	-0.345995	-0.225307	-0.412449	-0.17259	-0.0862338	0.777119	2.07813	-0.0224433	-0.396493	-0.244338	0.847063	2.03863
1.14	0.155055	-0.0342267	-0.0878876	0.923495	1.17627	-0.201418	0.0594193	0.00187891	-0.00573976	0.974502	-0.177032	-0.482381	-0.0212389	-0.144377	-0.0154203	-0.220431	-0.00432503	-0.0112013	0.143032	-0.0951396	-0.52016	-0.347206	-0.224028	-0.413777	-0.172058	-0.0887968	0.775495	2.07758	-0.0155583	-0.39842	-0.241529	0.8501	2.04018
1.15	0.156787	-0.0350315	-0.0887568	0.931796	1.17653	-0.201521	0.0701796	0.00215351	-0.00704982	0.964099	-0.167693	-0.481583	-0.0213243	-0.153223	-0.014431	-0.2149	-0.00200804	-0.00540049	0.131056	-0.0950111	-0.522035	-0.347968	-0.222377	-0.414549	-0.171693	-0.0905618	0.773723	2.07684	-0.0086871	-0.399747	-0.23918	0.852856	2.04295
1.16	0.158398	-0.0359831	-0.0897203	0.940046	1.17674	-0.201623	0.0803392	0.00300778	-0.00763044	0.950743	-0.156731	-0.475626	-0.0214096	-0.161828	-0.0136681	-0.210733	0.00066977	0.0010595	0.120954	-0.0948826	-0.523685	-0.348299	-0.22044	-0.414767	-0.171543	-0.0914959	0.771897	2.07595	-0.0019652	-0.400498	-0.237326	0.855365	2.0468
1.17	0.159824	-0.0370334	-0.0907727	0.948254	1.17687	-0.201723	0.0899279	0.00440641	-0.00746716	0.934524	-0.14444	-0.465108	-0.0214949	-0.170172	-0.0130869	-0.207954	0.00361556	0.00810359	0.112885	-0.0947542	-0.525042	-0.348244	-0.218305	-0.414459	-0.171625	-0.0916453	0.770108	2.07501	0.00449331	-0.400719	-0.235955	0.857674	2.05146
1.18	0.161019	-0.0381149	-0.0918987	0.956428	1.17694	-0.201823	0.0989614	0.00627067	-0.00658808	0.915557	-0.131218	-0.450885	-0.0215801	-0.178261	-0.0126118	-0.20646	0.00671704	0.0155912	0.106816	-0.094626	-0.526063	-0.347859	-0.21606	-0.413673	-0.171929	-0.0911259	0.768444	2.07421	0.0106003	-0.400464	-0.235008	0.859835	2.05655
1.19	0.161962	-0.0391509	-0.0930755	0.964573	1.17694	-0.201925	0.107439	0.00849404	-0.00505434	0.893979	-0.117528	-0.433996	-0.0216652	-0.186123	-0.0121493	-0.206051	0.00984941	0.0233341	0.102565	-0.0944979	-0.526739	-0.347208	-0.213778	-0.412471	-0.172422	-0.0901049	0.766979	2.07377	0.0162947	-0.399798	-0.234387	0.861908	2.0616
1.2	0.162655	-0.0400646	-0.0942759	0.972696	1.17687	-0.202034	0.115345	0.0109578	-0.00295087	0.869948	-0.103849	-0.415554	-0.0217503	-0.193809	-0.0116026	-0.206471	0.0128851	0.0311218	0.0998465	-0.0943699	-0.527089	-0.346353	-0.211521	-0.410924	-0.173053	-0.0887763	0.765777	2.07386	0.0215412	-0.398788	-0.233961	0.86395	2.06612
1.21	0.163116	-0.0407859	-0.0954708	0.980801	1.17673	-0.202153	0.12266	0.013544	-0.00037902	0.843633	-0.0906251	-0.396639	-0.0218353	-0.201377	-0.0108821	-0.207445	0.0157036	0.0387462	0.0983257	-0.0942421	-0.527153	-0.345347	-0.209332	-0.409103	-0.173761	-0.0873358	0.764879	2.07461	0.0263262	-0.397499	-0.233588	0.866008	2.06973
1.22	0.163373	-0.0412566	-0.0966313	0.988894	1.17653	-0.202287	0.129363	0.0161436	0.00254739	0.815216	-0.0782134	-0.37818	-0.0219203	-0.208886	-0.00991317	-0.208702	0.018199	0.0460204	0.0976544	-0.0941144	-0.526983	-0.344235	-0.207241	-0.407075	-0.174479	-0.0859571	0.764311	2.07603	0.0306534	-0.39599	-0.233127	0.868112	2.07219
1.23	0.163455	-0.0414357	-0.0977297	0.996978	1.17626	-0.202438	0.135445	0.0186648	0.00570247	0.784885	-0.0668572	-0.360871	-0.0220052	-0.216385	-0.00864393	-0.210024	0.0202905	0.0528041	0.0975332	-0.0939868	-0.526632	-0.343047	-0.20526	-0.404895	-0.175145	-0.0847772	0.764077	2.07804	0.0345393	-0.394314	-0.232456	0.87027	2.07348
1.24	0.163389	-0.0413026	-0.0987405	1.00506	1.17592	-0.202608	0.140903	0.0210364	0.00894459	0.752838	-0.056672	-0.345106	-0.0220902	-0.22391	-0.00704973	-0.211267	0.0219292	0.0590198	0.0977561	-0.0938593	-0.526151	-0.341797	-0.203393	-0.402611	-0.175704	-0.0838896	0.764165	2.08044	0.0380077	-0.392514	-0.231473	0.872468	2.07372
1.25	0.163196	-0.0408562	-0.0996405	1.01313	1.17552	-0.202799	0.145753	0.0232072	0.0121097	0.71928	-0.0476519	-0.330958	-0.022175	-0.231476	-0.00513155	-0.212375	0.0230987	0.0646565	0.0982231	-0.0937319	-0.525585	-0.340483	-0.201632	-0.400256	-0.176116	-0.0833433	0.764552	2.08299	0.0410849	-0.390624	-0.230102	0.874677	2.07315
1.26	0.162885	-0.0401129	-0.100409	1.0212	1.17506	-0.20301	0.150027	0.0251428	0.015004	0.68443	-0.0396921	-0.318193	-0.0222598	-0.239084	-0.00291094	-0.213361	0.0238095	0.0697596	0.0989223	-0.0936046	-0.524961	-0.33909	-0.199963	-0.397854	-0.176353	-0.0831485	0.765203	2.0854	0.0437946	-0.388669	-0.228298	0.876855	2.07207
1.27	0.162456	-0.0391017	-0.101028	1.02928	1.17454	-0.203244	0.153775	0.0268228	0.0173994	0.64852	-0.0326205	-0.306316	-0.0223446	-0.246723	-0.000422599	-0.214278	0.0240914	0.0744129	0.0998923	-0.0934775	-0.524295	-0.337593	-0.198372	-0.395418	-0.176408	-0.0832862	0.766077	2.08742	0.0461551	-0.386663	-0.226041	0.878956	2.0708
